<svg xmlns="http://www.w3.org/2000/svg" width="533" height="762" viewBox="0 0 533 762">
		<rect width="100%" height="100%" fill="#071b29"/>
		<text x="10" y="20" fill="#e8f7ff" font-size="13" font-family="Arial">proroom-full-presenter.json</text>
		<rect x="67.3" y="486.0" width="455.6" height="265.1" fill="rgb(92, 173, 173)" fill-opacity=".22" stroke="rgb(92, 173, 173)" stroke-width="1"/><text x="70.28835136855506" y="497.9528962444303" fill="#dff6ff" font-size="10">html</text>
<rect x="67.3" y="486.0" width="455.6" height="265.1" fill="rgb(115, 201, 221)" fill-opacity=".22" stroke="rgb(115, 201, 221)" stroke-width="1"/><text x="70.28835136855506" y="497.9528962444303" fill="#dff6ff" font-size="10">  </text>
<rect x="67.3" y="747.6" width="455.6" height="4.4" fill="rgb(117, 208, 160)" fill-opacity=".22" stroke="rgb(117, 208, 160)" stroke-width="1"/>
<rect x="67.3" y="747.6" width="455.6" height="4.4" fill="rgb(103, 132, 171)" fill-opacity=".22" stroke="rgb(103, 132, 171)" stroke-width="1"/>
<rect x="67.3" y="497.2" width="455.6" height="253.9" fill="rgb(84, 159, 163)" fill-opacity=".22" stroke="rgb(84, 159, 163)" stroke-width="1"/><text x="70.28835136855506" y="509.1814131126671" fill="#dff6ff" font-size="10">wrapper</text>
<rect x="67.3" y="497.2" width="455.6" height="253.9" fill="rgb(137, 160, 201)" fill-opacity=".22" stroke="rgb(137, 160, 201)" stroke-width="1"/><text x="70.28835136855506" y="509.1814131126671" fill="#dff6ff" font-size="10">d-flex flex-column-reverse flex-sm-row room-container</text>
<rect x="10.0" y="497.2" width="57.3" height="253.9" fill="rgb(134, 148, 188)" fill-opacity=".22" stroke="rgb(134, 148, 188)" stroke-width="1"/>
<rect x="10.0" y="497.2" width="57.3" height="253.9" fill="rgb(188, 125, 235)" fill-opacity=".22" stroke="rgb(188, 125, 235)" stroke-width="1"/>
<rect x="10.0" y="497.2" width="57.3" height="253.9" fill="rgb(123, 151, 189)" fill-opacity=".22" stroke="rgb(123, 151, 189)" stroke-width="1"/>
<rect x="10.0" y="497.2" width="57.3" height="32.8" fill="rgb(103, 216, 234)" fill-opacity=".22" stroke="rgb(103, 216, 234)" stroke-width="1"/>
<rect x="10.5" y="498.3" width="56.4" height="4.8" fill="rgb(155, 141, 176)" fill-opacity=".22" stroke="rgb(155, 141, 176)" stroke-width="1"/>
<rect x="32.9" y="499.0" width="31.2" height="3.7" fill="rgb(88, 124, 231)" fill-opacity=".22" stroke="rgb(88, 124, 231)" stroke-width="1"/>
<rect x="10.5" y="505.0" width="56.4" height="4.8" fill="rgb(128, 161, 225)" fill-opacity=".22" stroke="rgb(128, 161, 225)" stroke-width="1"/>
<rect x="10.5" y="511.6" width="56.4" height="7.1" fill="rgb(91, 155, 220)" fill-opacity=".22" stroke="rgb(91, 155, 220)" stroke-width="1"/>
<rect x="25.6" y="511.6" width="26.4" height="7.1" fill="rgb(169, 149, 218)" fill-opacity=".22" stroke="rgb(169, 149, 218)" stroke-width="1"/>
<rect x="10.5" y="521.9" width="56.4" height="4.8" fill="rgb(91, 155, 220)" fill-opacity=".22" stroke="rgb(91, 155, 220)" stroke-width="1"/>
<rect x="26.7" y="522.6" width="10.8" height="3.7" fill="rgb(165, 140, 223)" fill-opacity=".22" stroke="rgb(165, 140, 223)" stroke-width="1"/>
<rect x="34.5" y="522.8" width="3.2" height="3.2" fill="rgb(98, 126, 177)" fill-opacity=".22" stroke="rgb(98, 126, 177)" stroke-width="1"/>
<rect x="37.7" y="522.6" width="12.8" height="3.7" fill="rgb(182, 126, 163)" fill-opacity=".22" stroke="rgb(182, 126, 163)" stroke-width="1"/>
<rect x="47.4" y="522.8" width="3.2" height="3.2" fill="rgb(98, 126, 177)" fill-opacity=".22" stroke="rgb(98, 126, 177)" stroke-width="1"/>
<rect x="10.0" y="530.0" width="57.3" height="11.0" fill="rgb(91, 142, 179)" fill-opacity=".22" stroke="rgb(91, 142, 179)" stroke-width="1"/>
<rect x="11.6" y="531.1" width="54.1" height="8.5" fill="rgb(113, 161, 175)" fill-opacity=".22" stroke="rgb(113, 161, 175)" stroke-width="1"/>
<rect x="11.6" y="533.8" width="4.1" height="3.2" fill="rgb(158, 211, 193)" fill-opacity=".22" stroke="rgb(158, 211, 193)" stroke-width="1"/>
<rect x="15.7" y="533.6" width="31.6" height="3.7" fill="rgb(153, 130, 198)" fill-opacity=".22" stroke="rgb(153, 130, 198)" stroke-width="1"/>
<rect x="10.0" y="540.9" width="57.3" height="11.0" fill="rgb(91, 142, 179)" fill-opacity=".22" stroke="rgb(91, 142, 179)" stroke-width="1"/>
<rect x="11.6" y="542.1" width="54.1" height="8.5" fill="rgb(113, 161, 175)" fill-opacity=".22" stroke="rgb(113, 161, 175)" stroke-width="1"/>
<rect x="11.6" y="544.8" width="4.1" height="3.2" fill="rgb(196, 171, 213)" fill-opacity=".22" stroke="rgb(196, 171, 213)" stroke-width="1"/>
<rect x="15.7" y="544.6" width="27.3" height="3.7" fill="rgb(153, 130, 198)" fill-opacity=".22" stroke="rgb(153, 130, 198)" stroke-width="1"/>
<rect x="10.0" y="551.9" width="57.3" height="11.0" fill="rgb(94, 122, 188)" fill-opacity=".22" stroke="rgb(94, 122, 188)" stroke-width="1"/>
<rect x="11.6" y="553.1" width="54.1" height="8.5" fill="rgb(118, 169, 208)" fill-opacity=".22" stroke="rgb(118, 169, 208)" stroke-width="1"/>
<rect x="11.6" y="555.8" width="3.2" height="3.2" fill="rgb(85, 167, 187)" fill-opacity=".22" stroke="rgb(85, 167, 187)" stroke-width="1"/>
<rect x="14.8" y="555.6" width="15.4" height="3.7" fill="rgb(153, 130, 198)" fill-opacity=".22" stroke="rgb(153, 130, 198)" stroke-width="1"/>
<rect x="10.0" y="562.9" width="57.3" height="8.7" fill="rgb(134, 166, 174)" fill-opacity=".22" stroke="rgb(134, 166, 174)" stroke-width="1"/>
<rect x="11.6" y="562.9" width="54.1" height="8.5" fill="rgb(139, 191, 179)" fill-opacity=".22" stroke="rgb(139, 191, 179)" stroke-width="1"/>
<rect x="12.5" y="565.7" width="3.7" height="3.2" fill="rgb(122, 127, 170)" fill-opacity=".22" stroke="rgb(122, 127, 170)" stroke-width="1"/>
<rect x="16.2" y="565.5" width="33.9" height="3.7" fill="rgb(153, 130, 198)" fill-opacity=".22" stroke="rgb(153, 130, 198)" stroke-width="1"/>
<rect x="10.0" y="571.7" width="57.3" height="8.7" fill="rgb(134, 166, 174)" fill-opacity=".22" stroke="rgb(134, 166, 174)" stroke-width="1"/>
<rect x="11.6" y="571.7" width="54.1" height="8.5" fill="rgb(139, 191, 179)" fill-opacity=".22" stroke="rgb(139, 191, 179)" stroke-width="1"/>
<rect x="12.5" y="574.4" width="4.1" height="3.2" fill="rgb(103, 202, 234)" fill-opacity=".22" stroke="rgb(103, 202, 234)" stroke-width="1"/>
<rect x="16.6" y="574.2" width="38.3" height="3.7" fill="rgb(153, 130, 198)" fill-opacity=".22" stroke="rgb(153, 130, 198)" stroke-width="1"/>
<rect x="10.0" y="580.4" width="57.3" height="170.7" fill="rgb(177, 132, 190)" fill-opacity=".22" stroke="rgb(177, 132, 190)" stroke-width="1"/>
<rect x="11.6" y="581.5" width="54.1" height="8.0" fill="rgb(136, 159, 205)" fill-opacity=".22" stroke="rgb(136, 159, 205)" stroke-width="1"/>
<rect x="11.6" y="582.2" width="14.7" height="4.8" fill="rgb(136, 125, 181)" fill-opacity=".22" stroke="rgb(136, 125, 181)" stroke-width="1"/>
<rect x="11.6" y="583.1" width="2.7" height="3.2" fill="rgb(108, 175, 190)" fill-opacity=".22" stroke="rgb(108, 175, 190)" stroke-width="1"/>
<rect x="14.4" y="582.9" width="11.9" height="3.7" fill="rgb(153, 130, 198)" fill-opacity=".22" stroke="rgb(153, 130, 198)" stroke-width="1"/>
<rect x="26.3" y="581.5" width="39.4" height="6.2" fill="rgb(94, 168, 198)" fill-opacity=".22" stroke="rgb(94, 168, 198)" stroke-width="1"/>
<rect x="59.7" y="581.5" width="6.0" height="6.2" fill="rgb(82, 121, 192)" fill-opacity=".22" stroke="rgb(82, 121, 192)" stroke-width="1"/>
<rect x="61.1" y="583.1" width="3.2" height="3.2" fill="rgb(188, 167, 183)" fill-opacity=".22" stroke="rgb(188, 167, 183)" stroke-width="1"/>
<rect x="52.9" y="581.5" width="6.0" height="6.2" fill="rgb(191, 169, 164)" fill-opacity=".22" stroke="rgb(191, 169, 164)" stroke-width="1"/>
<rect x="54.2" y="583.1" width="3.2" height="3.2" fill="rgb(191, 125, 196)" fill-opacity=".22" stroke="rgb(191, 125, 196)" stroke-width="1"/>
<rect x="46.4" y="581.5" width="5.5" height="6.2" fill="rgb(121, 158, 164)" fill-opacity=".22" stroke="rgb(121, 158, 164)" stroke-width="1"/>
<rect x="47.8" y="583.1" width="2.7" height="3.2" fill="rgb(176, 218, 176)" fill-opacity=".22" stroke="rgb(176, 218, 176)" stroke-width="1"/>
<rect x="39.6" y="581.5" width="6.0" height="6.2" fill="rgb(139, 146, 196)" fill-opacity=".22" stroke="rgb(139, 146, 196)" stroke-width="1"/>
<rect x="40.9" y="583.1" width="3.2" height="3.2" fill="rgb(175, 147, 172)" fill-opacity=".22" stroke="rgb(175, 147, 172)" stroke-width="1"/>
<rect x="10.5" y="589.5" width="56.4" height="160.2" fill="rgb(136, 176, 230)" fill-opacity=".22" stroke="rgb(136, 176, 230)" stroke-width="1"/>
<rect x="10.5" y="589.5" width="56.4" height="160.2" fill="rgb(149, 205, 196)" fill-opacity=".22" stroke="rgb(149, 205, 196)" stroke-width="1"/>
<rect x="10.5" y="589.5" width="56.4" height="160.2" fill="rgb(147, 206, 215)" fill-opacity=".22" stroke="rgb(147, 206, 215)" stroke-width="1"/>
<rect x="67.3" y="486.0" width="455.6" height="11.2" fill="rgb(112, 181, 168)" fill-opacity=".22" stroke="rgb(112, 181, 168)" stroke-width="1"/>
<rect x="68.4" y="488.0" width="6.4" height="7.1" fill="rgb(93, 160, 203)" fill-opacity=".22" stroke="rgb(93, 160, 203)" stroke-width="1"/>
<rect x="69.8" y="489.4" width="3.7" height="4.1" fill="rgb(178, 153, 169)" fill-opacity=".22" stroke="rgb(178, 153, 169)" stroke-width="1"/>
<rect x="76.9" y="489.6" width="5.5" height="4.1" fill="rgb(190, 160, 181)" fill-opacity=".22" stroke="rgb(190, 160, 181)" stroke-width="1"/>
<rect x="78.3" y="490.1" width="2.7" height="3.2" fill="rgb(108, 175, 190)" fill-opacity=".22" stroke="rgb(108, 175, 190)" stroke-width="1"/>
<rect x="83.3" y="489.8" width="2.3" height="3.7" fill="rgb(183, 184, 217)" fill-opacity=".22" stroke="rgb(183, 184, 217)" stroke-width="1"/>
<rect x="87.5" y="487.1" width="45.8" height="9.2" fill="rgb(159, 143, 208)" fill-opacity=".22" stroke="rgb(159, 143, 208)" stroke-width="1"/>
<rect x="87.5" y="489.8" width="45.8" height="4.1" fill="rgb(110, 158, 231)" fill-opacity=".22" stroke="rgb(110, 158, 231)" stroke-width="1"/>
<rect x="133.3" y="486.2" width="389.6" height="11.0" fill="rgb(189, 150, 187)" fill-opacity=".22" stroke="rgb(189, 150, 187)" stroke-width="1"/>
<rect x="459.8" y="486.2" width="63.0" height="11.0" fill="rgb(95, 170, 198)" fill-opacity=".22" stroke="rgb(95, 170, 198)" stroke-width="1"/>
<rect x="459.8" y="486.9" width="38.3" height="9.4" fill="rgb(195, 174, 202)" fill-opacity=".22" stroke="rgb(195, 174, 202)" stroke-width="1"/>
<rect x="461.0" y="486.9" width="36.0" height="9.4" fill="rgb(144, 201, 171)" fill-opacity=".22" stroke="rgb(144, 201, 171)" stroke-width="1"/>
<rect x="498.1" y="486.2" width="11.5" height="11.0" fill="rgb(93, 159, 187)" fill-opacity=".22" stroke="rgb(93, 159, 187)" stroke-width="1"/>
<rect x="499.2" y="486.2" width="9.2" height="11.0" fill="rgb(164, 160, 172)" fill-opacity=".22" stroke="rgb(164, 160, 172)" stroke-width="1"/>
<rect x="501.1" y="488.0" width="8.2" height="7.3" fill="rgb(172, 153, 190)" fill-opacity=".22" stroke="rgb(172, 153, 190)" stroke-width="1"/>
<rect x="509.6" y="486.2" width="13.3" height="11.0" fill="rgb(91, 142, 179)" fill-opacity=".22" stroke="rgb(91, 142, 179)" stroke-width="1"/>
<rect x="510.7" y="486.2" width="11.0" height="11.0" fill="rgb(164, 160, 172)" fill-opacity=".22" stroke="rgb(164, 160, 172)" stroke-width="1"/>
<rect x="512.5" y="488.0" width="7.3" height="7.3" fill="rgb(178, 138, 185)" fill-opacity=".22" stroke="rgb(178, 138, 185)" stroke-width="1"/>
<rect x="67.3" y="497.2" width="455.6" height="253.9" fill="rgb(165, 140, 179)" fill-opacity=".22" stroke="rgb(165, 140, 179)" stroke-width="1"/><text x="70.28835136855506" y="509.1814131126671" fill="#dff6ff" font-size="10">mainAreaSplit</text>
<rect x="67.3" y="497.2" width="132.7" height="253.9" fill="rgb(152, 183, 214)" fill-opacity=".22" stroke="rgb(152, 183, 214)" stroke-width="1"/><text x="70.28835136855506" y="509.1814131126671" fill="#dff6ff" font-size="10">alert-chat-box alert-chat-regular as-split-area</text>
<rect x="67.3" y="497.2" width="132.7" height="253.9" fill="rgb(198, 171, 233)" fill-opacity=".22" stroke="rgb(198, 171, 233)" stroke-width="1"/><text x="70.28835136855506" y="509.1814131126671" fill="#dff6ff" font-size="10">as-percent as-vertical as-init</text>
<rect x="67.3" y="497.2" width="132.7" height="140.5" fill="rgb(94, 215, 214)" fill-opacity=".22" stroke="rgb(94, 215, 214)" stroke-width="1"/><text x="70.28835136855506" y="509.1814131126671" fill="#dff6ff" font-size="10">alert-box as-split-area</text>
<rect x="67.3" y="497.2" width="132.7" height="140.5" fill="rgb(152, 164, 179)" fill-opacity=".22" stroke="rgb(152, 164, 179)" stroke-width="1"/><text x="70.28835136855506" y="509.1814131126671" fill="#dff6ff" font-size="10">app-alerts</text>
<rect x="67.3" y="497.2" width="132.7" height="140.5" fill="rgb(87, 168, 222)" fill-opacity=".22" stroke="rgb(87, 168, 222)" stroke-width="1"/><text x="70.28835136855506" y="509.1814131126671" fill="#dff6ff" font-size="10">chat d-flex flex-column</text>
<rect x="67.3" y="497.2" width="132.7" height="11.0" fill="rgb(93, 123, 188)" fill-opacity=".22" stroke="rgb(93, 123, 188)" stroke-width="1"/>
<rect x="67.3" y="497.2" width="132.7" height="11.0" fill="rgb(81, 198, 187)" fill-opacity=".22" stroke="rgb(81, 198, 187)" stroke-width="1"/>
<rect x="69.1" y="498.1" width="18.1" height="9.2" fill="rgb(175, 146, 169)" fill-opacity=".22" stroke="rgb(175, 146, 169)" stroke-width="1"/>
<rect x="69.1" y="500.4" width="4.1" height="4.6" fill="rgb(154, 145, 177)" fill-opacity=".22" stroke="rgb(154, 145, 177)" stroke-width="1"/>
<rect x="185.1" y="499.9" width="14.0" height="5.5" fill="rgb(149, 152, 205)" fill-opacity=".22" stroke="rgb(149, 152, 205)" stroke-width="1"/>
<rect x="186.0" y="499.9" width="3.7" height="5.5" fill="rgb(123, 171, 163)" fill-opacity=".22" stroke="rgb(123, 171, 163)" stroke-width="1"/>
<rect x="186.0" y="499.9" width="3.7" height="5.5" fill="rgb(83, 130, 232)" fill-opacity=".22" stroke="rgb(83, 130, 232)" stroke-width="1"/>
<rect x="186.0" y="500.8" width="3.7" height="3.7" fill="rgb(153, 157, 226)" fill-opacity=".22" stroke="rgb(153, 157, 226)" stroke-width="1"/>
<rect x="192.4" y="499.9" width="6.6" height="5.5" fill="rgb(173, 133, 229)" fill-opacity=".22" stroke="rgb(173, 133, 229)" stroke-width="1"/>
<rect x="192.4" y="499.9" width="6.6" height="5.5" fill="rgb(178, 151, 196)" fill-opacity=".22" stroke="rgb(178, 151, 196)" stroke-width="1"/>
<rect x="192.4" y="500.8" width="3.7" height="3.7" fill="rgb(135, 148, 230)" fill-opacity=".22" stroke="rgb(135, 148, 230)" stroke-width="1"/>
<rect x="67.3" y="508.2" width="132.7" height="129.5" fill="rgb(84, 132, 162)" fill-opacity=".22" stroke="rgb(84, 132, 162)" stroke-width="1"/><text x="70.28835136855506" y="520.1807765754297" fill="#dff6ff" font-size="10">chatScrollViewParentAlerts</text>
<rect x="82.4" y="32.0" width="111.8" height="8.0" fill="rgb(159, 120, 220)" fill-opacity=".22" stroke="rgb(159, 120, 220)" stroke-width="1"/>
<rect x="67.3" y="46.0" width="132.7" height="73.6" fill="rgb(182, 126, 163)" fill-opacity=".22" stroke="rgb(182, 126, 163)" stroke-width="1"/><text x="70.28835136855506" y="57.97835773392744" fill="#dff6ff" font-size="10">ng-star-inserted</text>
<rect x="67.3" y="46.0" width="132.7" height="73.6" fill="rgb(186, 199, 178)" fill-opacity=".22" stroke="rgb(186, 199, 178)" stroke-width="1"/><text x="70.28835136855506" y="57.97835773392744" fill="#dff6ff" font-size="10">msg-box pb-1 ng-star-inserted</text>
<rect x="67.3" y="46.2" width="132.7" height="72.4" fill="rgb(136, 125, 181)" fill-opacity=".22" stroke="rgb(136, 125, 181)" stroke-width="1"/><text x="70.28835136855506" y="58.20751113940165" fill="#dff6ff" font-size="10">div</text>
<rect x="67.3" y="46.2" width="131.8" height="72.4" fill="rgb(120, 165, 236)" fill-opacity=".22" stroke="rgb(120, 165, 236)" stroke-width="1"/><text x="70.28835136855506" y="58.20751113940165" fill="#dff6ff" font-size="10">mr-1 d-flex flex-row</text>
<rect x="67.3" y="47.1" width="13.3" height="71.5" fill="rgb(187, 188, 222)" fill-opacity=".22" stroke="rgb(187, 188, 222)" stroke-width="1"/>
<rect x="67.3" y="47.1" width="4.4" height="7.8" fill="rgb(114, 184, 167)" fill-opacity=".22" stroke="rgb(114, 184, 167)" stroke-width="1"/>
<rect x="71.6" y="47.1" width="8.9" height="8.0" fill="rgb(131, 213, 203)" fill-opacity=".22" stroke="rgb(131, 213, 203)" stroke-width="1"/>
<rect x="72.6" y="47.1" width="8.0" height="8.0" fill="rgb(143, 172, 171)" fill-opacity=".22" stroke="rgb(143, 172, 171)" stroke-width="1"/>
<rect x="80.6" y="46.2" width="118.5" height="72.4" fill="rgb(158, 158, 212)" fill-opacity=".22" stroke="rgb(158, 158, 212)" stroke-width="1"/><text x="83.57924888605984" y="58.20751113940165" fill="#dff6ff" font-size="10">w-100</text>
<rect x="80.6" y="46.2" width="118.5" height="5.5" fill="rgb(81, 137, 196)" fill-opacity=".22" stroke="rgb(81, 137, 196)" stroke-width="1"/>
<rect x="80.6" y="46.4" width="22.7" height="4.8" fill="rgb(185, 169, 207)" fill-opacity=".22" stroke="rgb(185, 169, 207)" stroke-width="1"/>
<rect x="81.5" y="46.4" width="20.9" height="4.8" fill="rgb(145, 162, 195)" fill-opacity=".22" stroke="rgb(145, 162, 195)" stroke-width="1"/>
<rect x="171.3" y="46.2" width="27.7" height="5.5" fill="rgb(182, 126, 163)" fill-opacity=".22" stroke="rgb(182, 126, 163)" stroke-width="1"/>
<rect x="171.3" y="47.1" width="4.1" height="4.4" fill="rgb(140, 172, 177)" fill-opacity=".22" stroke="rgb(140, 172, 177)" stroke-width="1"/>
<rect x="172.2" y="48.0" width="2.3" height="2.3" fill="rgb(180, 127, 230)" fill-opacity=".22" stroke="rgb(180, 127, 230)" stroke-width="1"/>
<rect x="176.4" y="47.6" width="20.9" height="3.2" fill="rgb(150, 126, 161)" fill-opacity=".22" stroke="rgb(150, 126, 161)" stroke-width="1"/>
<rect x="80.6" y="51.7" width="118.5" height="66.9" fill="rgb(163, 183, 239)" fill-opacity=".22" stroke="rgb(163, 183, 239)" stroke-width="1"/><text x="83.57924888605984" y="63.70719287078294" fill="#dff6ff" font-size="10">d-flex</text>
<rect x="82.4" y="51.7" width="114.8" height="66.9" fill="rgb(156, 178, 219)" fill-opacity=".22" stroke="rgb(156, 178, 219)" stroke-width="1"/><text x="85.4124761298536" y="63.70719287078294" fill="#dff6ff" font-size="10">MU Trade Entry - I&apos;m taking a trade entry in MU because it&apos;s in the Final Push g</text>
<rect x="83.1" y="73.9" width="83.4" height="44.0" fill="rgb(127, 142, 181)" fill-opacity=".22" stroke="rgb(127, 142, 181)" stroke-width="1"/><text x="86.09993634627627" y="85.9350732017823" fill="#dff6ff" font-size="10"> </text>
<rect x="83.8" y="74.6" width="68.7" height="42.6" fill="rgb(91, 216, 226)" fill-opacity=".22" stroke="rgb(91, 216, 226)" stroke-width="1"/><text x="86.78739656269892" y="86.62253341820497" fill="#dff6ff" font-size="10">uploaded-img</text>
<rect x="67.3" y="119.5" width="132.7" height="29.1" fill="rgb(182, 126, 163)" fill-opacity=".22" stroke="rgb(182, 126, 163)" stroke-width="1"/><text x="70.28835136855506" y="131.53660089115215" fill="#dff6ff" font-size="10">ng-star-inserted</text>
<rect x="67.3" y="119.5" width="132.7" height="4.6" fill="rgb(140, 182, 175)" fill-opacity=".22" stroke="rgb(140, 182, 175)" stroke-width="1"/>
<rect x="119.3" y="119.5" width="28.4" height="4.6" fill="rgb(135, 139, 163)" fill-opacity=".22" stroke="rgb(135, 139, 163)" stroke-width="1"/>
<rect x="67.3" y="123.9" width="132.7" height="24.5" fill="rgb(186, 199, 178)" fill-opacity=".22" stroke="rgb(186, 199, 178)" stroke-width="1"/><text x="70.28835136855506" y="135.89051559516233" fill="#dff6ff" font-size="10">msg-box pb-1 ng-star-inserted</text>
<rect x="67.3" y="124.1" width="132.7" height="23.4" fill="rgb(136, 125, 181)" fill-opacity=".22" stroke="rgb(136, 125, 181)" stroke-width="1"/><text x="70.28835136855506" y="136.11966900063652" fill="#dff6ff" font-size="10">div</text>
<rect x="67.3" y="124.1" width="131.8" height="23.4" fill="rgb(120, 165, 236)" fill-opacity=".22" stroke="rgb(120, 165, 236)" stroke-width="1"/><text x="70.28835136855506" y="136.11966900063652" fill="#dff6ff" font-size="10">mr-1 d-flex flex-row</text>
	</svg>